<?xml version="1.0" encoding="UTF-8"?>
<svg version="1.1" xmlns="http://www.w3.org/2000/svg" width="1005" height="132">
<path d="M0 0 C-0.66863596 3.67315597 -2.26924901 6.38235322 -4.1875 9.5625 C-7.12312722 14.49338925 -9.9260534 19.47183541 -12.640625 24.52734375 C-14.03213052 27.05844432 -15.4991575 29.53243835 -17 32 C-14.16652956 32.94449015 -12.49325123 33.18605612 -9.5625 33.0625 C-8.80066406 33.05347656 -8.03882813 33.04445312 -7.25390625 33.03515625 C-4.04066673 31.559405 -3.45711219 29.42430012 -2.04272461 26.27954102 C-0.31537384 22.503312 1.87276922 18.99900001 4 15.4375 C4.85458598 13.99894693 5.70875745 12.56014753 6.5625 11.12109375 C6.96984375 10.43515137 7.3771875 9.74920898 7.796875 9.04248047 C9.5621707 6.0456331 11.28294878 3.02471291 13 0 C17.95 0 22.9 0 28 0 C27.19107868 4.85352791 26.82185541 6.85062747 24.5625 10.8125 C23.75619141 12.235625 23.75619141 12.235625 22.93359375 13.6875 C19.81093052 19.03703217 16.67710112 24.37961732 13.5234375 29.7109375 C11.22828022 33.59893742 8.9794512 37.51153847 6.75 41.4375 C4.50573738 45.38523907 2.2310549 49.30550281 -0.125 53.1875 C-2.22885647 56.65771978 -4.20130231 60.17673153 -6.125 63.75 C-8.2314809 67.65735836 -10.53728069 71.30592103 -13 75 C-13.8468032 76.51337464 -14.67796832 78.03552836 -15.5 79.5625 C-22.32987475 92.23667263 -29.55805326 104.69707438 -37.03808594 116.99731445 C-39.97545031 121.86668712 -42.58932566 126.8515749 -45 132 C-48.06286244 131.7099051 -48.90930976 131.10901337 -50.9140625 128.69921875 C-55.43812155 120.73563536 -55.43812155 120.73563536 -54.1875 115.78125 C-52.6323397 112.7020326 -50.91457435 109.86769941 -49 107 C-48.2815323 105.71394282 -47.57120203 104.42324559 -46.875 103.125 C-45.61721176 101.02868627 -44.30311085 98.9652252 -42.9375 96.9375 C-41.02099029 94.03182399 -39.55464667 91.11296863 -38 88 C-36.57117178 85.35828475 -35.10093064 82.74063587 -33.625 80.125 C-33.22216797 79.40957031 -32.81933594 78.69414063 -32.40429688 77.95703125 C-30.50129502 74.59372909 -28.58656762 71.25387817 -26.5 68 C-24.82770043 65.35945391 -23.23237716 62.69234169 -21.69921875 59.96875 C-21.28671875 59.2365625 -20.87421875 58.504375 -20.44921875 57.75 C-18.62817433 54.50256475 -16.81182022 51.25259229 -15 48 C-18.96 48 -22.92 48 -27 48 C-27.99 50.475 -27.99 50.475 -29 53 C-29.88560041 54.53913083 -30.80407061 56.05969283 -31.75 57.5625 C-35.20121113 63.19834477 -38.12012486 69.0564279 -41 75 C-41.66 75 -42.32 75 -43 75 C-43.66 76.98 -44.32 78.96 -45 81 C-46.8125 80.875 -46.8125 80.875 -49 80 C-50.625 77.125 -50.625 77.125 -52 74 C-52.66 73.01 -53.32 72.02 -54 71 C-54.58362323 66.6228258 -53.8844516 64.3465128 -51.2734375 60.828125 C-49.6521198 58.50058915 -48.34421257 56.05986956 -47 53.5625 C-45.34132574 50.48210494 -43.68319839 47.40700246 -41.9375 44.375 C-40.50982219 41.88807736 -39.12241517 39.3918544 -37.75 36.875 C-35.63553742 33.04944925 -33.37113829 29.33641089 -31.0625 25.625 C-28.52370324 21.53524657 -26.09359377 17.42633661 -23.8125 13.1875 C-23.32136719 12.30835938 -22.83023438 11.42921875 -22.32421875 10.5234375 C-20.96258083 8.05738232 -20.96258083 8.05738232 -20.08203125 5.5390625 C-16.51663634 -2.75593791 -7.66627554 -0.64861556 0 0 Z " fill="#FFFFFF" transform="translate(120,0)"/>
<path d="M0 0 C30.03 0 60.06 0 91 0 C91 4 91 4 90 6 C89.34 6 88.68 6 88 6 C87.773125 6.804375 87.54625 7.60875 87.3125 8.4375 C84.86077833 15.09217311 81.06143773 21.04966471 77.2109375 26.98046875 C75.90280291 29.10042322 75.90280291 29.10042322 74.59765625 31.8359375 C72.91787423 35.16264517 71.03836236 38.27839569 69.0625 41.4375 C66.83772386 45.00974736 64.6279196 48.58236152 62.5625 52.25 C61 55 61 55 60 56 C57.46950598 56.07313567 54.96695163 56.09247527 52.4375 56.0625 C51.72658203 56.05798828 51.01566406 56.05347656 50.28320312 56.04882812 C48.52209987 56.03700864 46.76103964 56.01907263 45 56 C45.39832031 56.65226562 45.79664063 57.30453125 46.20703125 57.9765625 C48.99840292 62.58130701 51.59169855 67.1833971 54 72 C54.94791415 73.61034538 55.90746908 75.21386389 56.875 76.8125 C57.64650391 78.09833984 57.64650391 78.09833984 58.43359375 79.41015625 C59.45205326 81.09404317 60.48520207 82.76916257 61.53515625 84.43359375 C63.534596 87.73628948 64.9443382 90.10941127 65.1875 94 C63.44763186 98.39545636 61.03988578 102.37148913 58 106 C57.34 106 56.68 106 56 106 C55.68546875 105.41992188 55.3709375 104.83984375 55.046875 104.2421875 C53.15245431 100.78429913 51.26734739 97.39670904 49.0625 94.125 C47.28946346 91.43858099 45.7669328 88.77101599 44.25 85.9375 C41.32859126 80.49609746 38.12147479 75.26585247 34.83203125 70.04296875 C33.05454319 67.09059519 31.51829926 64.09173229 30 61 C29.28279776 59.74309707 28.55578525 58.49165658 27.8125 57.25 C26 54 26 54 26 52 C25.34 52 24.68 52 24 52 C22.68 49.03 21.36 46.06 20 43 C23.71150585 42.07212354 26.50502642 41.88445767 30.296875 41.90234375 C31.50214844 41.90556641 32.70742188 41.90878906 33.94921875 41.91210938 C35.20347656 41.92048828 36.45773438 41.92886719 37.75 41.9375 C39.65458984 41.94426758 39.65458984 41.94426758 41.59765625 41.95117188 C44.73181836 41.96295444 47.86588541 41.97940584 51 42 C51.39832031 41.25234375 51.79664063 40.5046875 52.20703125 39.734375 C52.73683594 38.74953125 53.26664063 37.7646875 53.8125 36.75 C54.33457031 35.77546875 54.85664062 34.8009375 55.39453125 33.796875 C56.7926791 31.36117218 58.28853791 29.21753478 60 27 C61.09098513 25.09940304 62.15264346 23.1817322 63.1875 21.25 C63.71730469 20.26515625 64.24710937 19.2803125 64.79296875 18.265625 C65.19128906 17.51796875 65.58960937 16.7703125 66 16 C62.80243545 15.04755641 59.96607494 14.89422322 56.63647461 14.93408203 C55.5653392 14.94384064 54.4942038 14.95359924 53.39060974 14.96365356 C52.23948196 14.97822601 51.08835419 14.99279846 49.90234375 15.0078125 C47.46810308 15.02532287 45.03385803 15.04223171 42.59960938 15.05859375 C38.75891063 15.08962075 34.9184293 15.1252292 31.07788086 15.17138672 C27.37350694 15.21359235 23.66939173 15.23712541 19.96484375 15.2578125 C18.81169174 15.27643341 17.65853973 15.29505432 16.47044373 15.3142395 C14.86846886 15.31942093 14.86846886 15.31942093 13.23413086 15.32470703 C12.29355331 15.33438507 11.35297577 15.34406311 10.38389587 15.35403442 C7.54337032 14.93218553 6.74003997 14.23037941 5 12 C4.05494873 10.53051184 3.16034025 9.0276401 2.3125 7.5 C1.65701172 6.33984375 1.65701172 6.33984375 0.98828125 5.15625 C0 3 0 3 0 0 Z " fill="#FFFFFF" transform="translate(1,0)"/>
<path d="M0 0 C2.3125 1.625 2.3125 1.625 4.3125 3.625 C5.075625 2.985625 5.83875 2.34625 6.625 1.6875 C11.95953553 -2.40644587 17.85190001 -1.83769549 24.3125 -1.375 C29.22696936 0.23337179 32.84418924 3.03620197 35.3125 7.625 C37.45858358 15.25025807 37.56861306 22.95075948 37.4375 30.8125 C37.42847656 31.85986328 37.41945313 32.90722656 37.41015625 33.98632812 C37.38690213 36.53265397 37.35104544 39.07885972 37.3125 41.625 C33.0225 41.625 28.7325 41.625 24.3125 41.625 C24.25191406 39.63855469 24.19132813 37.65210938 24.12890625 35.60546875 C24.06632218 33.67927008 24.00370635 31.7530723 23.94018555 29.8269043 C23.87562994 27.83196681 23.8157217 25.83688071 23.75585938 23.84179688 C23.71396484 22.58818359 23.67207031 21.33457031 23.62890625 20.04296875 C23.57391968 18.30696411 23.57391968 18.30696411 23.51782227 16.53588867 C23.42921491 13.5606554 23.42921491 13.5606554 22.3125 10.625 C21.054375 10.5425 19.79625 10.46 18.5 10.375 C17.79230469 10.32859375 17.08460938 10.2821875 16.35546875 10.234375 C14.18143223 10.44863292 14.18143223 10.44863292 12.71679688 12.25585938 C10.92155718 15.2845461 10.8835565 17.41220453 10.80078125 20.921875 C10.76533203 22.12714844 10.72988281 23.33242187 10.69335938 24.57421875 C10.67080078 25.82847656 10.64824219 27.08273438 10.625 28.375 C10.59083984 29.64472656 10.55667969 30.91445312 10.52148438 32.22265625 C10.43901586 35.35645999 10.37408146 38.49071624 10.3125 41.625 C6.3525 41.625 2.3925 41.625 -1.6875 41.625 C-1.74357422 38.89669922 -1.74357422 38.89669922 -1.80078125 36.11328125 C-1.86644256 33.7213336 -1.93288984 31.32940744 -2 28.9375 C-2.02255859 27.73931641 -2.04511719 26.54113281 -2.06835938 25.30664062 C-2.10380859 24.14970703 -2.13925781 22.99277344 -2.17578125 21.80078125 C-2.20196533 20.73770752 -2.22814941 19.67463379 -2.25512695 18.5793457 C-2.74477516 15.23364672 -3.62747261 13.29443824 -5.6875 10.625 C-8.80074424 10.10612596 -10.68488953 9.9405753 -13.34301758 11.75512695 C-15.30763786 14.48747246 -15.12367687 16.70401759 -15.19921875 20.04296875 C-15.23466797 21.29658203 -15.27011719 22.55019531 -15.30664062 23.84179688 C-15.34047852 25.80729492 -15.34047852 25.80729492 -15.375 27.8125 C-15.40817666 29.14782013 -15.44266666 30.48310832 -15.47851562 31.81835938 C-15.56111509 35.08693825 -15.62598004 38.35595644 -15.6875 41.625 C-19.9775 41.625 -24.2675 41.625 -28.6875 41.625 C-28.76887519 37.31211496 -28.82818915 33.00078531 -28.875 28.6875 C-28.90013672 27.47513672 -28.92527344 26.26277344 -28.95117188 25.01367188 C-29.01943901 16.61681471 -28.76941963 9.33910828 -23.25 2.6875 C-16.51059098 -2.73690238 -8.03882301 -2.99752723 0 0 Z " fill="#FFFFFF" transform="translate(967.6875,47.375)"/>
<path d="M0 0 C2.4659747 1.06611688 3.91975212 2.24821231 6 4 C9.17898658 4.28139549 9.17898658 4.28139549 11.9375 2 C16.97287331 -1.01051042 22.32244466 -0.64050415 28 0 C33.29315663 1.73230581 35.84195002 4.57873003 39 9 C40.29036278 12.5948318 40.1137012 16.16651747 40.09765625 19.953125 C40.0962413 20.61334656 40.09482635 21.27356812 40.09336853 21.95379639 C40.08779245 24.05257794 40.07524447 26.15125095 40.0625 28.25 C40.0574819 29.67708179 40.05291954 31.10416525 40.04882812 32.53125 C40.03783088 36.02086832 40.0205828 39.51042356 40 43 C36.04 43 32.08 43 28 43 C27.93941406 41.09734375 27.87882812 39.1946875 27.81640625 37.234375 C27.73199575 34.73957571 27.647348 32.24478445 27.5625 29.75 C27.52318359 28.49574219 27.48386719 27.24148437 27.44335938 25.94921875 C27.40146484 24.74394531 27.35957031 23.53867188 27.31640625 22.296875 C27.26141968 20.63156738 27.26141968 20.63156738 27.20532227 18.93261719 C27.07083965 15.78983065 27.07083965 15.78983065 26 12 C22.7 12 19.4 12 16 12 C15.09274139 15.62903443 14.80620862 18.58339617 14.68359375 22.296875 C14.62075195 24.10478516 14.62075195 24.10478516 14.55664062 25.94921875 C14.51732422 27.20347656 14.47800781 28.45773438 14.4375 29.75 C14.37272461 31.65458984 14.37272461 31.65458984 14.30664062 33.59765625 C14.20060345 36.7316438 14.09980152 39.86580768 14 43 C10.04 43 6.08 43 2 43 C1.94392578 40.27169922 1.94392578 40.27169922 1.88671875 37.48828125 C1.82105744 35.0963336 1.75461016 32.70440744 1.6875 30.3125 C1.66494141 29.11431641 1.64238281 27.91613281 1.61914062 26.68164062 C1.58369141 25.52470703 1.54824219 24.36777344 1.51171875 23.17578125 C1.48553467 22.11270752 1.45935059 21.04963379 1.43237305 19.9543457 C0.94272484 16.60864672 0.06002739 14.66943824 -2 12 C-5.11324424 11.48112596 -6.99738953 11.3155753 -9.65551758 13.13012695 C-11.62013786 15.86247246 -11.43617687 18.07901759 -11.51171875 21.41796875 C-11.54716797 22.67158203 -11.58261719 23.92519531 -11.61914062 25.21679688 C-11.65297852 27.18229492 -11.65297852 27.18229492 -11.6875 29.1875 C-11.72067666 30.52282013 -11.75516666 31.85810832 -11.79101562 33.19335938 C-11.87361509 36.46193825 -11.93848004 39.73095644 -12 43 C-16.29 43 -20.58 43 -25 43 C-25.08137519 38.68711496 -25.14068915 34.37578531 -25.1875 30.0625 C-25.21263672 28.85013672 -25.23777344 27.63777344 -25.26367188 26.38867188 C-25.33193901 17.99181471 -25.08191963 10.71410828 -19.5625 4.0625 C-13.48072603 -0.83258636 -7.6389115 -0.8170975 0 0 Z " fill="#FFFFFF" transform="translate(473,46)"/>
<path d="M0 0 C4.29 0 8.58 0 13 0 C13 7.26 13 14.52 13 22 C20.59 22 28.18 22 36 22 C36 14.74 36 7.48 36 0 C40.29 0 44.58 0 49 0 C49 18.48 49 36.96 49 56 C44.71 56 40.42 56 36 56 C36 48.74 36 41.48 36 34 C28.41 34 20.82 34 13 34 C13 41.26 13 48.52 13 56 C8.71 56 4.42 56 0 56 C0 37.52 0 19.04 0 0 Z " fill="#FFFFFF" transform="translate(568,33)"/>
<path d="M0 0 C3.96 0 7.92 0 12 0 C12.04898437 1.75828125 12.09796875 3.5165625 12.1484375 5.328125 C12.22347189 7.63543254 12.29901943 9.94272343 12.375 12.25 C12.4059375 13.40886719 12.436875 14.56773438 12.46875 15.76171875 C12.50742187 16.87675781 12.54609375 17.99179688 12.5859375 19.140625 C12.6173584 20.16704102 12.6487793 21.19345703 12.68115234 22.25097656 C13.00003151 25.00027167 13.50284815 26.68942447 15 29 C18.1838412 30.5919206 21.53444359 30.39058525 25 30 C27.04451019 28.95625978 27.04451019 28.95625978 28 27 C28.82594406 23.55198788 29.17159237 20.23681487 29.31640625 16.69921875 C29.35830078 15.72275391 29.40019531 14.74628906 29.44335938 13.74023438 C29.48267578 12.73283203 29.52199219 11.72542969 29.5625 10.6875 C29.60568359 9.66076172 29.64886719 8.63402344 29.69335938 7.57617188 C29.79906738 5.05092511 29.90000208 2.52547933 30 0 C33.96 0 37.92 0 42 0 C42.09936145 6.38626642 42.17170145 12.77207635 42.21972656 19.15893555 C42.23976081 21.32861171 42.26699612 23.49823443 42.30175781 25.66772461 C42.350637 28.798149 42.37305125 31.92785548 42.390625 35.05859375 C42.41127014 36.01833603 42.43191528 36.97807831 42.45318604 37.96690369 C42.45527012 44.31505234 41.48530098 49.58956767 38 55 C31.73380966 60.97723624 25.74212512 61.30083681 17.453125 61.20703125 C11.32766255 60.83978067 7.83811111 59.16447888 3.625 54.625 C1.25621339 51.85085953 0.53212838 49.6011479 0 46 C2.10353495 45.9189794 4.20795952 45.86080093 6.3125 45.8125 C7.48425781 45.77769531 8.65601563 45.74289063 9.86328125 45.70703125 C13.33549288 46.03133495 13.85870931 46.44468331 16 49 C19.77224325 49.97798899 22.15130413 50.27674865 25.875 49.0625 C29.06292088 45.9683415 28.78516559 43.36829972 29 39 C28.195625 39.66 27.39125 40.32 26.5625 41 C22.49979121 43.69250276 18.72636298 43.66812461 14 43 C8.10025569 41.23007671 5.43269047 38.90384353 2 34 C-0.00672755 29.95212643 -0.23490633 26.66186867 -0.1953125 22.16796875 C-0.18886719 20.87568359 -0.18242187 19.58339844 -0.17578125 18.25195312 C-0.15907327 16.8971327 -0.14214342 15.54231499 -0.125 14.1875 C-0.11496003 12.81315749 -0.10583596 11.43880797 -0.09765625 10.06445312 C-0.07411242 6.70945683 -0.04122567 3.35481801 0 0 Z " fill="#FFFFFF" transform="translate(260,47)"/>
<path d="M0 0 C6.93 -0.0928125 6.93 -0.0928125 14 -0.1875 C16.16175781 -0.22846802 16.16175781 -0.22846802 18.3671875 -0.27026367 C26.71587972 -0.3243024 33.02957152 -0.08811104 39.8125 5.1875 C44.34633766 11.01671984 45.69488532 16.70370419 45 24 C42.90773242 30.49704144 39.94931235 34.47221957 33.85546875 37.62890625 C29.73084762 39.33173149 25.96552681 39.34335529 21.5625 39.1875 C19.066875 39.125625 16.57125 39.06375 14 39 C14 44.61 14 50.22 14 56 C9.38 56 4.76 56 0 56 C0 37.52 0 19.04 0 0 Z M14 12 C14 16.95 14 21.9 14 27 C15.8975 27.04125 17.795 27.0825 19.75 27.125 C20.81734375 27.14820313 21.8846875 27.17140625 22.984375 27.1953125 C25.95022828 27.00322356 27.55204664 26.63578192 30 25 C31.52491998 21.95016004 31.23562548 19.3576631 31 16 C29.52345669 13.66861583 28.48052812 13.15546498 25.875 12.3125 C21.89639828 11.88004329 18.0019526 11.94026936 14 12 Z " fill="#FFFFFF" transform="translate(158,33)"/>
<path d="M0 0 C5.49287111 3.35675457 8.92524083 8.1278818 10.9296875 14.17578125 C12.49248126 20.94388039 11.93239414 27.09231076 8.84765625 33.328125 C5.79531476 37.75867054 1.49643486 40.68868838 -3.5625 42.375 C-5.68319561 42.54566284 -7.81045098 42.6412598 -9.9375 42.6875 C-11.61972656 42.74357422 -11.61972656 42.74357422 -13.3359375 42.80078125 C-16.5625 42.375 -16.5625 42.375 -21.5625 38.375 C-21.8925 45.305 -22.2225 52.235 -22.5625 59.375 C-26.5225 59.375 -30.4825 59.375 -34.5625 59.375 C-34.63697293 53.25523503 -34.69125469 47.13573722 -34.72729492 41.015625 C-34.74232843 38.93615113 -34.76276074 36.85670869 -34.78881836 34.77734375 C-34.82544136 31.77856666 -34.84228111 28.78021089 -34.85546875 25.78125 C-34.87095261 24.86009399 -34.88643646 23.93893799 -34.90238953 22.98986816 C-34.9042063 15.93173056 -33.89406678 10.30611252 -29.375 4.625 C-20.94140538 -2.1218757 -10.34308995 -4.67107288 0 0 Z M-20.5625 13.375 C-22.60655082 17.67777364 -22.78393283 20.5804469 -21.5 25.1875 C-19.41327806 28.62049416 -18.27032556 29.90911548 -14.5625 31.375 C-9.91675928 31.95571759 -7.29713846 31.17597884 -3.5625 28.375 C-0.73605322 24.13532983 -0.90338053 20.35413141 -1.5625 15.375 C-3.66754591 11.81819828 -4.64656808 10.68031064 -8.5625 9.375 C-14.0011743 8.87141905 -16.88767662 9.17520186 -20.5625 13.375 Z " fill="#FFFFFF" transform="translate(802.5625,47.625)"/>
<path d="M0 0 C4.94895464 3.00548104 8.39324937 7.12338505 10.875 12.3125 C11.5 15.4375 11.5 15.4375 11.5 24.4375 C-4.34 24.9325 -4.34 24.9325 -20.5 25.4375 C-16.36176022 30.44997925 -16.36176022 30.44997925 -13.1484375 30.99609375 C-12.02308594 30.93615234 -12.02308594 30.93615234 -10.875 30.875 C-10.11960937 30.85308594 -9.36421875 30.83117187 -8.5859375 30.80859375 C-6.20217369 30.52811938 -6.20217369 30.52811938 -3.5 28.4375 C-0.14453125 28.2421875 -0.14453125 28.2421875 3.6875 28.3125 C4.95980469 28.33054687 6.23210938 28.34859375 7.54296875 28.3671875 C8.51878906 28.39039062 9.49460937 28.41359375 10.5 28.4375 C8.66226891 32.48508841 6.95441961 35.36589177 3.5625 38.25 C2.55896484 39.12591797 2.55896484 39.12591797 1.53515625 40.01953125 C-4.30193105 44.0864462 -12.70098745 43.06730327 -19.5 42.4375 C-22.75025823 41.29843669 -25.00255432 39.78658257 -27.5 37.4375 C-28.00015625 36.96828125 -28.5003125 36.4990625 -29.015625 36.015625 C-33.85209753 30.84560264 -35.00716014 24.62591191 -34.80859375 17.76953125 C-33.8926141 10.84750786 -30.71753753 5.97660829 -25.37890625 1.62890625 C-18.19340792 -2.92738687 -7.78869614 -3.51018608 0 0 Z M-20.5 13.4375 C-20.5 14.0975 -20.5 14.7575 -20.5 15.4375 C-14.23 15.4375 -7.96 15.4375 -1.5 15.4375 C-3.0620223 11.58633289 -3.0620223 11.58633289 -5.125 10.1875 C-11.39711309 8.20683271 -15.93791891 8.59028885 -20.5 13.4375 Z " fill="#FFFFFF" transform="translate(658.5,47.5625)"/>
<path d="M0 0 C5.16403999 3.12938612 8.69085743 7.55285812 10.4375 13.375 C11.71915909 19.14707618 11.54929889 24.87205515 11.5 30.75 C11.49548828 31.77222656 11.49097656 32.79445312 11.48632812 33.84765625 C11.47460317 36.35679623 11.45666965 38.86590586 11.4375 41.375 C7.4775 41.375 3.5175 41.375 -0.5625 41.375 C-0.8925 40.385 -1.2225 39.395 -1.5625 38.375 C-2.6453125 39.365 -2.6453125 39.365 -3.75 40.375 C-8.74555678 43.72524213 -14.82370286 42.96133943 -20.5625 42.375 C-25.99572039 40.69564097 -29.4222776 37.00966559 -32.5625 32.375 C-35.55851352 26.34207175 -35.27687119 19.95013071 -34.5625 13.375 C-32.66619467 7.81145956 -29.63192033 3.46610996 -24.5625 0.375 C-17.02731481 -2.5894863 -7.53647418 -3.44524534 0 0 Z M-20.5625 13.375 C-22.85103994 16.64434278 -23.03412218 19.4448152 -22.5625 23.375 C-20.91226991 26.43971302 -19.506424 28.68278907 -16.6875 30.75 C-12.65064466 31.93731039 -9.65417046 31.87121384 -5.8125 30.125 C-3.33694854 28.19957109 -2.45118894 27.36422645 -1.5625 24.375 C-1.14093786 19.06331706 -1.0411359 15.65094212 -4.5625 11.375 C-10.03819505 7.26822871 -16.07249172 8.75670577 -20.5625 13.375 Z " fill="#FFFFFF" transform="translate(749.5625,47.625)"/>
<path d="M0 0 C5.57464437 3.40938551 9.05711555 8.263756 10.65625 14.546875 C11.7735117 20.04998316 11.72125414 25.46865357 11.625 31.0625 C11.61597656 32.07119141 11.60695313 33.07988281 11.59765625 34.11914062 C11.57433501 36.5795319 11.53847404 39.03979902 11.5 41.5 C7.54 41.5 3.58 41.5 -0.5 41.5 C-0.83 40.51 -1.16 39.52 -1.5 38.5 C-2.5828125 39.49 -2.5828125 39.49 -3.6875 40.5 C-8.67976002 43.84803119 -14.76453334 43.09332414 -20.5 42.5 C-25.40845314 40.89359716 -29.46239963 37.699574 -32.5 33.5 C-35.41657456 26.43253263 -36.04454013 18.02511964 -33.5546875 10.73046875 C-30.73342195 5.38071048 -27.49982195 1.68018746 -21.76953125 -0.57421875 C-14.96091785 -2.5021057 -6.59819213 -2.87874792 0 0 Z M-20.5 13.5 C-22.78853994 16.76934278 -22.97162218 19.5698152 -22.5 23.5 C-20.84976991 26.56471302 -19.443924 28.80778907 -16.625 30.875 C-12.58814466 32.06231039 -9.59167046 31.99621384 -5.75 30.25 C-3.27444854 28.32457109 -2.38868894 27.48922645 -1.5 24.5 C-1.07843786 19.18831706 -0.9786359 15.77594212 -4.5 11.5 C-9.97569505 7.39322871 -16.00999172 8.88170577 -20.5 13.5 Z " fill="#FFFFFF" transform="translate(366.5,47.5)"/>
<path d="M0 0 C6.14562941 3.732217 9.54242833 8.59825953 11.5 15.4375 C11.72705078 18.50537109 11.72705078 18.50537109 11.6953125 21.7109375 C11.68886719 22.86464844 11.68242187 24.01835938 11.67578125 25.20703125 C11.65902344 26.39683594 11.64226562 27.58664063 11.625 28.8125 C11.61597656 30.02550781 11.60695312 31.23851562 11.59765625 32.48828125 C11.57416682 35.47143929 11.53829821 38.45449532 11.5 41.4375 C7.87 41.4375 4.24 41.4375 0.5 41.4375 C0.005 39.4575 0.005 39.4575 -0.5 37.4375 C-1.221875 38.2625 -1.94375 39.0875 -2.6875 39.9375 C-6.81554324 43.37917026 -11.13787769 43.07904993 -16.30859375 42.84375 C-21.95424721 42.12508665 -25.58931621 40.72110233 -29.28125 36.30859375 C-33.9923457 29.56417137 -35.53535157 23.66148574 -34.5 15.4375 C-32.30469214 8.89888908 -29.22896133 4.25680756 -23.5 0.4375 C-16.6030535 -2.92163457 -7.0402013 -3.17285668 0 0 Z M-20.5 13.4375 C-22.2246216 16.8867432 -21.86610104 20.65881431 -21.5 24.4375 C-20.23854888 27.40191013 -19.27685568 28.87494933 -16.6875 30.75 C-13.72019177 31.68258259 -11.60315844 31.80987901 -8.5 31.4375 C-5.48666891 29.81493711 -3.23867218 28.33675309 -1.0625 25.6875 C-0.17966914 22.15617657 -0.53248305 18.89585845 -1.5 15.4375 C-3.32109266 12.67648854 -4.54201097 10.91649452 -7.5 9.4375 C-13.19130337 8.89025929 -16.06117185 9.84416293 -20.5 13.4375 Z " fill="#FFFFFF" transform="translate(240.5,47.5625)"/>
<path d="M0 0 C5.56834327 3.95172748 8.08738318 8.62942236 9.5 15.25 C10.39326341 22.46902674 9.09919468 28.83272832 4.75 34.75 C-2.14885923 41.18893528 -8.05816893 42.03914506 -17.4921875 41.7578125 C-23.84829703 41.07630404 -27.27325047 39.04496623 -31.875 34.75 C-36.42294122 28.61413354 -37.78213828 21.22489072 -36.703125 13.765625 C-35.06140964 7.63922379 -31.41268999 2.76780341 -26.0625 -0.625 C-17.73547018 -3.87113027 -8.04698834 -4.2601703 0 0 Z M-21.89453125 11.68359375 C-24.15884031 14.96267677 -24.37400184 18.48122702 -24.0625 22.375 C-22.55175287 26.03259831 -20.66738365 28.66742353 -17.0625 30.375 C-12.78608938 30.57225141 -9.25193678 30.08866207 -5.5625 27.875 C-3.34268353 24.17530588 -2.86306144 20.66292896 -3.0625 16.375 C-4.58586958 12.68684206 -6.51757263 10.24593389 -10.0625 8.375 C-14.97552957 7.64714377 -18.17803088 8.18629715 -21.89453125 11.68359375 Z " fill="#FFFFFF" transform="translate(924.0625,48.625)"/>
<path d="M0 0 C4.40725424 2.69174237 8.59829045 6.36810458 10.08984375 11.4453125 C10.375 13.375 10.375 13.375 10.5 16.4375 C6.46096516 16.72328077 2.53007517 16.88886842 -1.5 16.4375 C-4.125 14 -4.125 14 -5.5 11.4375 C-8.56429776 9.90535112 -11.1165642 10.20811452 -14.5 10.4375 C-18.22803465 12.18478778 -18.22803465 12.18478778 -20.5 15.4375 C-20.69758231 17.51314676 -20.69758231 17.51314676 -20.6875 19.8125 C-20.70876953 20.96878906 -20.70876953 20.96878906 -20.73046875 22.1484375 C-20.47447181 24.6910512 -19.83066988 26.26865016 -18.5 28.4375 C-15.27193696 30.74325932 -12.38588268 30.83401864 -8.5 30.4375 C-5.00593231 28.76987678 -3.67329319 27.69743978 -1.5 24.4375 C1.3203125 24.14453125 1.3203125 24.14453125 4.625 24.25 C5.72070312 24.27707031 6.81640625 24.30414063 7.9453125 24.33203125 C9.20988281 24.38423828 9.20988281 24.38423828 10.5 24.4375 C10.37601977 30.38855091 8.55090978 33.43294287 4.4296875 37.703125 C-1.65090308 43.16827119 -7.96737934 43.02372177 -15.89453125 42.8515625 C-20.86345913 42.28091639 -23.88803763 40.83489034 -27.5 37.4375 C-28.00015625 36.96828125 -28.5003125 36.4990625 -29.015625 36.015625 C-33.85209753 30.84560264 -35.00716014 24.62591191 -34.80859375 17.76953125 C-33.8926141 10.84750786 -30.71753753 5.97660829 -25.37890625 1.62890625 C-18.19340792 -2.92738687 -7.78869614 -3.51018608 0 0 Z " fill="#FFFFFF" transform="translate(872.5,47.5625)"/>
<path d="M0 0 C3.93971874 2.92953445 6.08952056 5.2755908 7.1875 10.125 C7.27 11.011875 7.3525 11.89875 7.4375 12.8125 C3.4775 12.8125 -0.4825 12.8125 -4.5625 12.8125 C-4.8925 11.8225 -5.2225 10.8325 -5.5625 9.8125 C-8.5325 9.8125 -11.5025 9.8125 -14.5625 9.8125 C-14.2325 11.1325 -13.9025 12.4525 -13.5625 13.8125 C-12.54929687 14.04324219 -11.53609375 14.27398437 -10.4921875 14.51171875 C3.72808418 17.90297906 3.72808418 17.90297906 7.4375 22.8125 C8.85053118 27.27470374 8.81566588 30.69901156 7.3125 35.125 C4.59551362 39.01934715 1.95163003 41.30778999 -2.5625 42.8125 C-18.2967607 43.93901397 -18.2967607 43.93901397 -24.5625 38.8125 C-27.6395951 35.7354049 -27.93014306 33.03204537 -28.5625 28.8125 C-26.43811661 28.73171359 -24.3128677 28.67340859 -22.1875 28.625 C-21.00414062 28.59019531 -19.82078125 28.55539063 -18.6015625 28.51953125 C-17.09722656 28.66455078 -17.09722656 28.66455078 -15.5625 28.8125 C-14.9025 29.8025 -14.2425 30.7925 -13.5625 31.8125 C-10.48328868 32.06910094 -8.35113007 32.20681504 -5.5625 30.8125 C-5.5625 29.8225 -5.5625 28.8325 -5.5625 27.8125 C-6.65949219 27.58175781 -7.75648438 27.35101563 -8.88671875 27.11328125 C-10.34136273 26.78481325 -11.79577826 26.45533235 -13.25 26.125 C-13.97123047 25.97611328 -14.69246094 25.82722656 -15.43554688 25.67382812 C-20.46398615 24.50282172 -23.18028485 22.91901361 -26.5625 18.8125 C-28.09847454 15.74055092 -27.7890038 13.21005707 -27.5625 9.8125 C-25.81833626 5.13079732 -23.69214161 2.60000809 -19.5625 -0.1875 C-13.40955161 -2.2384828 -6.11765143 -2.03921714 0 0 Z " fill="#FFFFFF" transform="translate(411.5625,47.1875)"/>
<path d="M0 0 C3.51564267 3.05708059 5.34924312 6.12174112 6.875 10.5 C6.875 11.16 6.875 11.82 6.875 12.5 C4.93818839 12.58107583 3.0004066 12.63922475 1.0625 12.6875 C-0.01644531 12.72230469 -1.09539063 12.75710937 -2.20703125 12.79296875 C-5.53463157 12.45887233 -5.99029663 11.88292469 -8.125 9.5 C-11.75035976 9.2496423 -11.75035976 9.2496423 -15.125 9.5 C-14.795 10.82 -14.465 12.14 -14.125 13.5 C-13.10019531 13.74234375 -12.07539062 13.9846875 -11.01953125 14.234375 C-9.658686 14.57224003 -8.29801803 14.91081969 -6.9375 15.25 C-5.92719727 15.48589844 -5.92719727 15.48589844 -4.89648438 15.7265625 C-0.44071021 16.85680765 2.58356687 18.28184553 5.875 21.5 C7.84344684 25.68294953 8.12909909 28.71858083 7 33.125 C5.35928797 37.20932568 3.48395038 39.59904058 -0.41015625 41.6875 C-4.01419269 42.7661181 -7.51465532 43.00069183 -11.25 43.0625 C-11.9308667 43.07740479 -12.6117334 43.09230957 -13.31323242 43.10766602 C-18.35334571 43.00405585 -21.2012549 41.5641467 -25.125 38.5 C-25.723125 38.066875 -26.32125 37.63375 -26.9375 37.1875 C-28.81622063 34.5177391 -28.8244456 31.68587661 -29.125 28.5 C-25.165 28.5 -21.205 28.5 -17.125 28.5 C-16.795 29.49 -16.465 30.48 -16.125 31.5 C-14.84625 31.520625 -13.5675 31.54125 -12.25 31.5625 C-11.53070312 31.57410156 -10.81140625 31.58570313 -10.0703125 31.59765625 C-8.04314596 31.62649242 -8.04314596 31.62649242 -6.125 30.5 C-6.125 29.51 -6.125 28.52 -6.125 27.5 C-7.22199219 27.25765625 -8.31898438 27.0153125 -9.44921875 26.765625 C-10.90380891 26.4277847 -12.35822719 26.08920375 -13.8125 25.75 C-14.8943457 25.51410156 -14.8943457 25.51410156 -15.99804688 25.2734375 C-20.58731188 24.18374901 -23.65334243 22.87208804 -27.125 19.5 C-29.33567859 15.07864282 -28.52283093 9.74029644 -27.0625 5.1875 C-21.13819819 -3.03007994 -8.96743017 -4.34784493 0 0 Z " fill="#FFFFFF" transform="translate(703.125,47.5)"/>
<path d="M0 0 C4.29 0 8.58 0 13 0 C13 20.13 13 40.26 13 61 C8.71 61 4.42 61 0 61 C0 40.87 0 20.74 0 0 Z " fill="#FFFFFF" transform="translate(522,28)"/>
<path d="M0 0 C3.96 0 7.92 0 12 0 C12 20.13 12 40.26 12 61 C8.04 61 4.08 61 0 61 C0 40.87 0 20.74 0 0 Z " fill="#FFFFFF" transform="translate(312,28)"/>
<path d="M0 0 C3.96 0 7.92 0 12 0 C12 13.86 12 27.72 12 42 C8.04 42 4.08 42 0 42 C0 28.14 0 14.28 0 0 Z " fill="#FFFFFF" transform="translate(545,47)"/>
<path d="M0 0 C3.96 0 7.92 0 12 0 C12 13.86 12 27.72 12 42 C8.04 42 4.08 42 0 42 C0 28.14 0 14.28 0 0 Z " fill="#FFFFFF" transform="translate(427,47)"/>
<path d="M0 0 C4.0743356 0.84881992 5.54405875 2.30225596 8 5.625 C8.625 8.625 8.625 8.625 8 11.625 C5.54405875 14.94774404 4.0743356 16.40118008 0 17.25 C-4.0743356 16.40118008 -5.54405875 14.94774404 -8 11.625 C-8.625 8.625 -8.625 8.625 -8 5.625 C-5.54405875 2.30225596 -4.0743356 0.84881992 0 0 Z " fill="#FFFFFF" transform="translate(551,26.375)"/>
<path d="M0 0 C2.875 1.5 2.875 1.5 5 4 C5.71730941 6.8229596 5.71730941 9.1770404 5 12 C2.41832046 15.03727005 0.87501007 15.87499856 -3.0625 16.4375 C-6.41948631 15.93752331 -7.76774103 15.562964 -10 13 C-11.10373378 9.02655839 -11.41543583 6.91000228 -9.6875 3.125 C-6.84166592 -0.45864292 -4.43603275 -0.43490517 0 0 Z " fill="#FFFFFF" transform="translate(436,27)"/>
<path d="M0 0 C3.03727005 2.58167954 3.87499856 4.12498993 4.4375 8.0625 C3.94326028 11.38096669 3.3078101 12.60634138 1 15 C-2.39495573 15.80965227 -5.5805734 15.65515064 -9 15 C-11.1875 12.9375 -11.1875 12.9375 -12 10 C-11.88214109 6.58209158 -11.58916681 4.07436301 -9.9375 1.0625 C-6.72431078 -0.69957151 -3.50278615 -0.7470731 0 0 Z " fill="#FFFFFF" transform="translate(830,75)"/>
<path d="" fill="#FFFFFF" transform="translate(0,0)"/>
</svg>
